# xmcd
#
# Track frame offsets: 
#        150
#        16382
#        31430
#        47522
#        62120
#        76442
#        90920
#        109027
#        122610
#        138495
#
# Disc length: 2076 seconds
#
# Revision: 2
# Processed by: cddbd v1.5.2PL0 Copyright (c) Steve Scherf et al.
# Submitted via: ExactAudioCopy v1.3
#
DISCID=78081a0a
DTITLE=Anne Murray - You Will
DYEAR=1990
DGENRE=Country
TTITLE0=Hold Me (Just A Little Longer Tonight)
TTITLE1=New Way Out
TTITLE2=Bluebird
TTITLE3=Wrong End Of The Rainbow
TTITLE4=Mean Old Moon
TTITLE5=You Will
TTITLE6=The Final Say
TTITLE7=Feed This Fire
TTITLE8=A Little Short Of Love
TTITLE9=A New Moon, An Old Flame And You
EXTD=
EXTT0=
EXTT1=
EXTT2=
EXTT3=
EXTT4=
EXTT5=
EXTT6=
EXTT7=
EXTT8=
EXTT9=
PLAYORDER=
